
      <svg data-logo="logo" xmlns="http://www.w3.org/2000/svg" viewBox="0 0 221 43">
        <g id="logogram" transform="translate(0, 1) rotate(0) "><path d="M37.5569 2.04585C38.4821 1.08338 39.7385 0.542663 41.0469 0.542664C46.9335 0.542664 52.4811 0.542667 57.9442 0.542678C68.932 0.542701 74.4342 14.3629 66.6646 22.4456L49.7407 40.0517C48.9637 40.86 47.6352 40.2875 47.6352 39.1444V23.6376L49.591 21.6029C51.145 19.9864 50.0444 17.2223 47.8468 17.2223H22.9684L37.5569 2.04585Z" fill="#0D0D0D"/><path d="M33.0467 38.8142C32.1215 39.7767 30.8651 40.3174 29.5567 40.3174C23.6701 40.3174 18.1225 40.3174 12.6594 40.3174C1.67159 40.3173 -3.83061 26.4972 3.93897 18.4144L20.8629 0.808361C21.6399 8.48472e-05 22.9684 0.57254 22.9684 1.71562L22.9684 17.2223L21.0126 19.2571C19.4586 20.8737 20.5592 23.6377 22.7568 23.6377L47.6352 23.6376L33.0467 38.8142Z" fill="#3A04FF"/></g>
        <g id="logotype" transform="translate(77, 8.5)"><path fill="#111111" d="M13.64 26L8.31 26L8.31 0.54L14.12 0.54L22.17 13.42Q22.78 14.41 23.41 15.58Q24.05 16.74 24.70 18.16Q25.36 19.57 26.01 21.35L26.01 21.35L25.48 21.35Q25.36 19.93 25.27 18.33Q25.17 16.72 25.11 15.25Q25.04 13.78 25.04 12.76L25.04 12.76L25.04 0.54L30.37 0.54L30.37 26L24.54 26L17.23 14.31Q16.42 12.99 15.74 11.76Q15.06 10.52 14.31 9.01Q13.57 7.51 12.55 5.44L12.55 5.44L13.21 5.44Q13.31 7.29 13.42 8.98Q13.52 10.67 13.58 12.05Q13.64 13.42 13.64 14.29L13.64 14.29L13.64 26ZM41.22 26.38L41.22 26.38Q38.30 26.38 36.18 25.18Q34.06 23.98 32.92 21.78Q31.79 19.57 31.79 16.55L31.79 16.55Q31.79 13.59 32.91 11.37Q34.04 9.15 36.11 7.90Q38.18 6.65 40.96 6.65L40.96 6.65Q42.84 6.65 44.47 7.25Q46.09 7.85 47.32 9.06Q48.55 10.26 49.24 12.07Q49.94 13.88 49.94 16.34L49.94 16.34L49.94 17.78L33.89 17.78L33.89 14.57L47.42 14.57L45.03 15.42Q45.03 13.93 44.58 12.83Q44.13 11.73 43.23 11.12Q42.33 10.52 41.00 10.52L41.00 10.52Q39.68 10.52 38.75 11.13Q37.82 11.75 37.34 12.80Q36.86 13.85 36.86 15.20L36.86 15.20L36.86 17.47Q36.86 19.13 37.42 20.26Q37.97 21.39 38.97 21.95Q39.97 22.51 41.31 22.51L41.31 22.51Q42.21 22.51 42.95 22.26Q43.68 22.00 44.20 21.50Q44.72 20.99 45.00 20.26L45.00 20.26L49.65 21.13Q49.18 22.70 48.04 23.89Q46.89 25.08 45.18 25.73Q43.46 26.38 41.22 26.38ZM55.13 26L49.69 26L57.09 14.19L57.08 18.19L50.07 6.89L55.61 6.89L57.33 9.92Q58.15 11.39 58.81 12.83Q59.47 14.28 60.15 15.64L60.15 15.64L58.21 15.64Q58.91 14.29 59.56 12.84Q60.20 11.39 61.06 9.92L61.06 9.92L62.85 6.89L68.29 6.89L61.14 18.24L61.14 14.29L68.56 26L63.06 26L60.94 22.39Q60.10 20.94 59.43 19.49Q58.75 18.04 58.05 16.70L58.05 16.70L60.02 16.70Q59.35 18.04 58.71 19.49Q58.07 20.94 57.25 22.39L57.25 22.39L55.13 26ZM67.35 6.89L78.68 6.89L78.68 10.81L67.35 10.81L67.35 6.89ZM69.98 20.86L69.98 2.35L75.11 2.35L75.11 20.41Q75.11 21.32 75.51 21.75Q75.91 22.19 76.85 22.19L76.85 22.19Q77.14 22.19 77.67 22.11Q78.20 22.04 78.47 21.97L78.47 21.97L79.21 25.81Q78.35 26.07 77.51 26.17Q76.66 26.27 75.89 26.27L75.89 26.27Q73.02 26.27 71.50 24.87Q69.98 23.47 69.98 20.86L69.98 20.86ZM90.98 26.34L90.98 26.34Q87.60 26.34 84.92 24.80Q82.25 23.27 80.70 20.34Q79.15 17.42 79.15 13.29L79.15 13.29Q79.15 9.13 80.71 6.20Q82.26 3.27 84.95 1.73Q87.63 0.19 90.98 0.19L90.98 0.19Q93.15 0.19 95.02 0.80Q96.89 1.41 98.35 2.57Q99.80 3.73 100.72 5.42Q101.64 7.10 101.93 9.23L101.93 9.23L96.65 9.23Q96.48 8.19 96.00 7.38Q95.51 6.57 94.78 6.00Q94.06 5.42 93.12 5.12Q92.18 4.83 91.08 4.83L91.08 4.83Q89.10 4.83 87.60 5.82Q86.09 6.81 85.27 8.70Q84.45 10.58 84.45 13.29L84.45 13.29Q84.45 16.04 85.29 17.92Q86.13 19.80 87.61 20.75Q89.10 21.71 91.07 21.71L91.07 21.71Q92.16 21.71 93.09 21.41Q94.02 21.11 94.76 20.54Q95.51 19.97 96.00 19.15Q96.48 18.33 96.67 17.30L96.67 17.30L101.95 17.30Q101.75 19.06 100.90 20.69Q100.05 22.31 98.65 23.59Q97.25 24.87 95.32 25.61Q93.39 26.34 90.98 26.34ZM108.68 26.38L108.68 26.38Q106.87 26.38 105.43 25.74Q103.98 25.09 103.15 23.82Q102.33 22.55 102.33 20.65L102.33 20.65Q102.33 19.06 102.91 17.98Q103.50 16.91 104.52 16.26Q105.54 15.61 106.83 15.27Q108.12 14.93 109.54 14.79L109.54 14.79Q111.19 14.62 112.21 14.47Q113.23 14.33 113.70 14.01Q114.17 13.70 114.17 13.08L114.17 13.08L114.17 12.99Q114.17 12.17 113.83 11.61Q113.48 11.05 112.82 10.75Q112.15 10.45 111.18 10.45L111.18 10.45Q110.19 10.45 109.45 10.75Q108.72 11.05 108.26 11.54Q107.79 12.04 107.57 12.65L107.57 12.65L102.87 11.87Q103.37 10.21 104.51 9.05Q105.66 7.88 107.36 7.27Q109.06 6.65 111.18 6.65L111.18 6.65Q112.73 6.65 114.19 7.02Q115.64 7.39 116.79 8.16Q117.95 8.93 118.62 10.16Q119.30 11.39 119.30 13.13L119.30 13.13L119.30 26L114.44 26L114.44 23.35L114.27 23.35Q113.81 24.24 113.04 24.91Q112.27 25.59 111.19 25.98Q110.10 26.38 108.68 26.38ZM110.14 22.77L110.14 22.77Q111.35 22.77 112.26 22.29Q113.18 21.81 113.69 20.99Q114.20 20.17 114.20 19.16L114.20 19.16L114.20 17.10Q113.98 17.27 113.52 17.40Q113.06 17.54 112.49 17.64Q111.93 17.75 111.38 17.83Q110.84 17.92 110.41 17.97L110.41 17.97Q109.47 18.10 108.75 18.41Q108.03 18.72 107.64 19.22Q107.25 19.73 107.25 20.51L107.25 20.51Q107.25 21.25 107.62 21.75Q108.00 22.26 108.64 22.51Q109.28 22.77 110.14 22.77ZM126.52 26L121.40 26L121.40 6.89L126.35 6.89L126.35 10.23L126.56 10.23Q127.09 8.45 128.33 7.54Q129.56 6.64 131.17 6.64L131.17 6.64Q131.56 6.64 132.02 6.68Q132.47 6.72 132.83 6.81L132.83 6.81L132.83 11.39Q132.49 11.27 131.84 11.20Q131.19 11.13 130.61 11.13L130.61 11.13Q129.44 11.13 128.50 11.64Q127.56 12.14 127.04 13.04Q126.52 13.93 126.52 15.13L126.52 15.13L126.52 26ZM131.53 6.89L142.86 6.89L142.86 10.81L131.53 10.81L131.53 6.89ZM134.16 20.86L134.16 2.35L139.29 2.35L139.29 20.41Q139.29 21.32 139.69 21.75Q140.09 22.19 141.03 22.19L141.03 22.19Q141.32 22.19 141.85 22.11Q142.38 22.04 142.65 21.97L142.65 21.97L143.39 25.81Q142.53 26.07 141.69 26.17Q140.84 26.27 140.07 26.27L140.07 26.27Q137.20 26.27 135.68 24.87Q134.16 23.47 134.16 20.86L134.16 20.86Z"/></g>
        
      </svg>
    